<?xml version="1.0" encoding="UTF-8"?>
<svg id="Layer_1" xmlns="http://www.w3.org/2000/svg" xmlns:xlink="http://www.w3.org/1999/xlink" viewBox="0 0 505 505">
  <defs>
    <style>
      .cls-1 {
        fill: none;
      }

      .cls-2 {
        fill: #331a18;
      }

      .cls-3 {
        clip-path: url(#clippath);
      }
    </style>
    <clipPath id="clippath">
      <rect class="cls-1" width="505" height="505"/>
    </clipPath>
  </defs>
  <g class="cls-3">
    <path class="cls-2" d="M414.57,43.08c40.71,28.76,70.38,73.31,83,121.03,12.31,48.03,7.89,99.22-2.84,153.26-11.04,54.04-28.72,110.6-66.9,144.73-38.18,34.44-97.51,46.45-153.37,42.03-55.86-4.42-108.56-25.6-148.64-59.09-40.4-33.81-68.17-80.26-91.84-132.72C10.31,259.85-9.26,201.08,4.63,151.47c13.57-49.93,60.28-90.69,110.14-116.6C164.95,9.27,217.96-1.16,270.35.1c52.39,1.26,103.83,14.22,144.22,42.98Z"/>
  </g>
</svg>